# xmcd
#
# Track frame offsets: 
#        150
#        15957
#        28765
#        42655
#        56070
#        68950
#        85205
#        97945
#        116505
#        128742
#        146807
#        162405
#        173882
#        187515
#        199705
#        221395
#        242820
#        256240
#        272485
#        289140
#        305655
#        317572
#        335037
#
# Disc length: 4735 seconds
#
# Revision: 3
# Processed by: cddbd v1.5.2PL0 Copyright (c) Steve Scherf et al.
# Submitted via: ExactAudioCopyFreeDBPlugin 1.0
#
DISCID=4c127d17
DTITLE=Allen Toussaint - The Complete Warner Recordings
DYEAR=2016
DGENRE=Rhythm and Blues
TTITLE0=Victims of the Darkness
TTITLE1=Am I Expecting Too Much
TTITLE2=My Baby is the Real Thing
TTITLE3=Goin' Down
TTITLE4=She Once Belonged to Me
TTITLE5=Out of the City (Into Country Life)
TTITLE6=Soul Sister
TTITLE7=Fingers and Toes
TTITLE8=I've Got to Convince Myself
TTITLE9=On Your Way Down
TTITLE10=Gone Too Far
TTITLE11=Electricity
TTITLE12=Last Train
TTITLE13=Worldwide
TTITLE14=Back in Baby's Arms
TTITLE15=Country John
TTITLE16=Basic Lady
TTITLE17=Southern Nights
TTITLE18=You Will Not Lose
TTITLE19=What Do You Want the Girl to Do
TTITLE20=When the Party's Over
TTITLE21=Cruel Way to Go Down
TTITLE22=Country John (Single Version)
EXTD=Limited edition of 2500 copies
EXTT0=
EXTT1=
EXTT2=
EXTT3=
EXTT4=
EXTT5=
EXTT6=
EXTT7=
EXTT8=
EXTT9=
EXTT10=
EXTT11=
EXTT12=
EXTT13=
EXTT14=
EXTT15=
EXTT16=
EXTT17=
EXTT18=
EXTT19=
EXTT20=
EXTT21=
EXTT22=
PLAYORDER=
